<svg width="22" height="11" viewBox="0 0 22 11" fill="none" xmlns="http://www.w3.org/2000/svg">
<path d="M0.419355 2.34186C0.419355 1.43407 1.15526 0.698163 2.06305 0.698163L17.1046 0.698163C18.0124 0.698163 18.7483 1.43407 18.7483 2.34186V8.12524C18.7483 9.03303 18.0124 9.76894 17.1046 9.76894L2.06306 9.76894C1.15526 9.76894 0.419355 9.03303 0.419355 8.12524L0.419355 2.34186Z" stroke="white" stroke-width="0.758631"/>
<path d="M19.9957 3.49951V6.96872C20.6939 6.6749 21.1479 5.99138 21.1479 5.23411C21.1479 4.47684 20.6939 3.79333 19.9957 3.49951Z" fill="white"/>
<path d="M1.77625 2.77567C1.77625 2.21703 2.22911 1.76416 2.78775 1.76416L6.83805 1.76416C7.39669 1.76416 7.84956 2.21703 7.84956 2.77567L7.84956 7.69106C7.84956 8.2497 7.39669 8.70257 6.83805 8.70257H2.78775C2.22911 8.70257 1.77625 8.2497 1.77625 7.69106L1.77625 2.77567Z" fill="white"/>
</svg>
