<svg xmlns="http://www.w3.org/2000/svg" viewBox="0 0 30 15" width="30" height="15"><g transform="matrix(0 -1 1 0 -0 15)"><path d="M11.3748 1.37638C12.5922 1.37638 13.5792 2.36333 13.5792 3.58079L13.5792 23.7534C13.5792 24.9708 12.5922 25.9578 11.3748 25.9578L3.61856 25.9578C2.4011 25.9578 1.41415 24.9708 1.41415 23.7534L1.41415 3.58079C1.41415 2.36333 2.4011 1.37638 3.61856 1.37638L11.3748 1.37638Z" stroke="white" stroke-width="1.01742"/><path d="M9.82251 27.6304L5.16988 27.6304C5.56393 28.5667 6.4806 29.1756 7.49619 29.1756C8.51179 29.1756 9.42846 28.5667 9.82251 27.6304Z" fill="white"/><path d="M10.7929 3.19629C11.5421 3.19629 12.1494 3.80364 12.1494 4.55285L12.1494 9.9848C12.1494 10.734 11.5421 11.3414 10.7929 11.3414L4.20071 11.3414C3.45151 11.3414 2.84416 10.734 2.84416 9.9848L2.84416 4.55285C2.84416 3.80364 3.45151 3.19629 4.20071 3.19629L10.7929 3.19629Z" fill="white"/></g></svg>