<svg xmlns="http://www.w3.org/2000/svg" viewBox="0 0 20 20" width="20" height="20"><g transform="matrix(0 -1 1 0 -0 20)"><path fill-rule="evenodd" clip-rule="evenodd" d="M8.70524 9.72014L10.4392 11.4541C10.9181 11.933 11.6497 12.0517 12.2555 11.7489L12.452 11.6506C13.0577 11.3477 13.7894 11.4665 14.2683 11.9454L16.4182 14.0953C16.5719 14.2489 16.5719 14.498 16.4182 14.6516C16.3883 14.6815 16.3538 14.7064 16.316 14.7253L14.5789 15.5938C13.2501 16.2583 11.6451 15.9978 10.5946 14.9473L5.8751 10.2278C4.73155 9.08427 4.33225 7.39279 4.84366 5.85856L5.47684 3.95902C5.54554 3.75292 5.76831 3.64153 5.97441 3.71023C6.03234 3.72955 6.08498 3.76208 6.12817 3.80526L8.214 5.8911C8.6929 6.37 8.81162 7.10161 8.50874 7.70737L8.41049 7.90387C8.10761 8.50963 8.22634 9.24124 8.70524 9.72014Z" fill="white"/></g></svg>