<svg width="14" height="13" viewBox="0 0 14 13" fill="none" xmlns="http://www.w3.org/2000/svg">
<path fill-rule="evenodd" clip-rule="evenodd" d="M6.96193 7.63252L8.12097 6.47348C8.44108 6.15337 8.52044 5.66434 8.31798 5.25942L8.25231 5.12808C8.04985 4.72317 8.12921 4.23414 8.44932 3.91403L9.88644 2.47691C9.98912 2.37423 10.1556 2.37423 10.2583 2.47691C10.2783 2.4969 10.2949 2.51997 10.3075 2.54525L10.8881 3.70636C11.3322 4.59462 11.1581 5.66741 10.4559 6.36964L7.30127 9.52427C6.53689 10.2887 5.40625 10.5556 4.38073 10.2137L3.11101 9.79048C2.97325 9.74456 2.8988 9.59565 2.94472 9.45789C2.95763 9.41917 2.97937 9.38398 3.00824 9.35511L4.40247 7.96088C4.72258 7.64077 5.21162 7.56141 5.61653 7.76386L5.74787 7.82954C6.15278 8.03199 6.64182 7.95263 6.96193 7.63252Z" fill="white"/>
</svg>
