<svg xmlns="http://www.w3.org/2000/svg" viewBox="0 0 20 20" width="20" height="20"><g transform="matrix(0 -1 1 0 -0 20)"><path opacity="0.3" fill-rule="evenodd" clip-rule="evenodd" d="M3.35229 9.78711C3.35229 5.87662 6.52237 2.70654 10.4329 2.70654C14.3433 2.70654 17.5134 5.87662 17.5134 9.78711C17.5134 13.6976 14.3433 16.8677 10.4329 16.8677C6.52237 16.8677 3.35229 13.6976 3.35229 9.78711Z" fill="white"/><path fill-rule="evenodd" clip-rule="evenodd" d="M13.5764 9.36301C13.8003 9.38023 13.9731 9.5669 13.9731 9.79141C13.9731 10.0122 13.8059 10.197 13.5862 10.2189L10.0395 10.5736L8.58591 13.1174C8.51178 13.2471 8.37383 13.3272 8.22442 13.3272C7.94988 13.3272 7.7505 13.0661 7.82273 12.8013L8.73109 9.47062C8.80556 9.19757 9.06342 9.01586 9.3456 9.03756L13.5764 9.36301Z" fill="white"/></g></svg>