<svg width="14" height="13" viewBox="0 0 14 13" fill="none" xmlns="http://www.w3.org/2000/svg">
<path opacity="0.3" fill-rule="evenodd" clip-rule="evenodd" d="M7.00558 11.1518C4.39168 11.1518 2.27271 9.0328 2.27271 6.41891C2.27271 3.80501 4.39168 1.68604 7.00558 1.68604C9.61947 1.68604 11.7384 3.80501 11.7384 6.41891C11.7384 9.0328 9.61947 11.1518 7.00558 11.1518Z" fill="white"/>
<path fill-rule="evenodd" clip-rule="evenodd" d="M6.72275 4.31791C6.73426 4.16828 6.85903 4.05273 7.00911 4.05273C7.15666 4.05273 7.2802 4.16454 7.29488 4.31136L7.53196 6.68211L9.23229 7.65373C9.31901 7.70328 9.37252 7.79549 9.37252 7.89536C9.37252 8.07887 9.19803 8.21214 9.02099 8.16386L6.79468 7.55668C6.61216 7.50691 6.4907 7.33455 6.50521 7.14592L6.72275 4.31791Z" fill="white"/>
</svg>
