<svg width="20" height="20" viewBox="0 0 20 20" fill="none" xmlns="http://www.w3.org/2000/svg">
<g clip-path="url(#clip0_479_2225)">
<path d="M13.5502 14.0927V13.3039H11.1838V10.9374H13.5502V12.5151H15.1278V14.0927H14.339V15.6703H12.7614V17.2479H11.1838V14.8815H12.7614V14.0927H13.5502ZM17.4943 17.2479H14.339V15.6703H15.9166V14.0927H17.4943V17.2479ZM3.29565 3.04932L9.60615 3.04932V9.35981H3.29565L3.29565 3.04932ZM4.87328 4.62694V7.78219H8.02853V4.62694H4.87328ZM11.1838 3.04932L17.4943 3.04932V9.35981H11.1838V3.04932ZM12.7614 4.62694V7.78219H15.9166V4.62694L12.7614 4.62694ZM3.29565 10.9374H9.60615V17.2479H3.29565L3.29565 10.9374ZM4.87328 12.5151L4.87328 15.6703H8.02853V12.5151H4.87328ZM15.1278 10.9374H17.4943V12.5151H15.1278V10.9374ZM5.66209 5.41575H7.23971V6.99338H5.66209V5.41575ZM5.66209 13.3039H7.23971V14.8815H5.66209V13.3039ZM13.5502 5.41575H15.1278V6.99338H13.5502V5.41575Z" fill="#010914"/>
</g>
<defs>
<clipPath id="clip0_479_2225">
<rect width="18.9315" height="18.9315" fill="white" transform="translate(0.929443 0.682617)"/>
</clipPath>
</defs>
</svg>
