<svg width="20" height="20" viewBox="0 0 20 20" fill="none" xmlns="http://www.w3.org/2000/svg">
<path opacity="0.3" d="M11.9701 14.122C11.662 13.8139 11.662 13.3145 11.9701 13.0064C12.2781 12.6984 12.7775 12.6984 13.0856 13.0064L16.2408 16.1617C16.5489 16.4697 16.5489 16.9692 16.2408 17.2772C15.9328 17.5853 15.4333 17.5853 15.1253 17.2772L11.9701 14.122Z" fill="#B7B7B7"/>
<path fill-rule="evenodd" clip-rule="evenodd" d="M3.8501 9.62032C3.8501 12.6699 6.32224 15.142 9.37178 15.142C12.4213 15.142 14.8935 12.6699 14.8935 9.62032C14.8935 6.57077 12.4213 4.09863 9.37178 4.09863C6.32224 4.09863 3.8501 6.57077 3.8501 9.62032ZM13.3175 9.62032C13.3175 11.7986 11.5517 13.5644 9.37343 13.5644C7.19519 13.5644 5.42937 11.7986 5.42937 9.62032C5.42937 7.44208 7.19519 5.67626 9.37343 5.67626C11.5517 5.67626 13.3175 7.44208 13.3175 9.62032Z" fill="#B7B7B7"/>
</svg>
