<svg width="16" height="10" viewBox="0 0 16 10" fill="none" xmlns="http://www.w3.org/2000/svg">
<path fill-rule="evenodd" clip-rule="evenodd" d="M14.1931 0.608398L13.3255 0.608398C12.8463 0.608398 12.4578 0.996702 12.4578 1.4757L12.4578 8.99231C12.4578 9.4713 12.8463 9.85961 13.3255 9.85961H14.1931C14.6723 9.85961 15.0607 9.4713 15.0607 8.99231L15.0607 1.4757C15.0607 0.996702 14.6723 0.608398 14.1931 0.608398ZM9.27612 2.63198L10.1437 2.63198C10.6229 2.63198 11.0114 3.02028 11.0114 3.49928L11.0114 8.99218C11.0114 9.47118 10.6229 9.85948 10.1437 9.85948H9.27612C8.79695 9.85948 8.4085 9.47118 8.4085 8.99218L8.4085 3.49928C8.4085 3.02028 8.79695 2.63198 9.27612 2.63198ZM6.09586 4.65574H5.22824C4.74907 4.65574 4.36062 5.04404 4.36062 5.52304L4.36062 8.99224C4.36062 9.47124 4.74907 9.85954 5.22824 9.85954L6.09586 9.85954C6.57503 9.85954 6.96348 9.47124 6.96348 8.99224L6.96348 5.52304C6.96348 5.04404 6.57503 4.65574 6.09586 4.65574ZM2.0465 6.38987H1.17889C0.699722 6.38987 0.311279 6.77817 0.311279 7.25717L0.311279 8.99177C0.311279 9.47077 0.699722 9.85908 1.17889 9.85908H2.0465C2.52567 9.85908 2.91412 9.47077 2.91412 8.99177V7.25717C2.91412 6.77817 2.52567 6.38987 2.0465 6.38987Z" fill="white"/>
</svg>
