<svg width="21" height="13" xmlns="http://www.w3.org/2000/svg">

 <g>
  <title>background</title>
  <rect fill="none" id="canvas_background" height="15" width="23" y="-1" x="-1"/>
 </g>
 <g>
  <title>Layer 1</title>
  <path transform="rotate(-90 10.373906135559082,6.4307470321655265) " id="svg_1" fill="white" d="m16.577431,15.157651l0,-1.1636c0,-0.6426 -0.5208,-1.1635 -1.1632,-1.1635l-10.08069,0c-0.64239,0 -1.16316,0.5209 -1.16316,1.1635l0,1.1636c0,0.6427 0.52077,1.1636 1.16316,1.1636l10.08069,0c0.6424,0 1.1632,-0.521 1.1632,-1.1636zm-2.71402,-6.5944l0,1.1636c0,0.6426 -0.52077,1.1635 -1.16316,1.1635l-7.36666,0c-0.64239,0 -1.16316,-0.5209 -1.16316,-1.1635l0,-1.1636c0,-0.6427 0.52077,-1.1636 1.16316,-1.1636l7.36666,0c0.64239,0 1.16316,0.5209 1.16316,1.1636zm-2.71399,-4.26499l0,-1.16358c0,-0.64263 -0.52077,-1.16359 -1.16316,-1.16359l-4.65263,0c-0.64239,0 -1.16316,0.52096 -1.16316,1.16359l0,1.16358c0,0.64263 0.52077,1.16359 1.16316,1.16359l4.65263,0c0.64239,0 1.16316,-0.52096 1.16316,-1.16359zm-2.32562,-5.43087l0,-1.16358c0,-0.64262 -0.52076,-1.16357 -1.16316,-1.16357l-2.32631,0c-0.6424,0 -1.16316,0.52095 -1.16316,1.16357l0,1.16358c0,0.64262 0.52076,1.16357 1.16316,1.16357l2.32631,0c0.6424,0 1.16316,-0.52095 1.16316,-1.16357z" clip-rule="evenodd" fill-rule="evenodd"/>
 </g>
</svg>