<svg xmlns="http://www.w3.org/2000/svg" viewBox="0 0 20 20" width="20" height="20"><g transform="matrix(0 -1 1 0 -0 20)"><path d="M18.1469 9.04072C18.6905 9.21736 18.6905 9.98643 18.1469 10.1631L13.7583 11.589C13.5152 11.668 13.3506 11.8945 13.3506 12.1502L13.3506 16.7646C13.3506 17.3362 12.6192 17.5739 12.2832 17.1114L9.57091 13.3783C9.42066 13.1715 9.15434 13.0849 8.91122 13.1639L4.52263 14.5899C3.97901 14.7665 3.52696 14.1443 3.86294 13.6819L6.57524 9.94871C6.72549 9.74191 6.72549 9.46188 6.57524 9.25507L3.86294 5.52191C3.52696 5.05948 3.97901 4.43729 4.52263 4.61392L8.91122 6.03986C9.15434 6.11885 9.42066 6.03232 9.57092 5.82551L12.2832 2.09235C12.6192 1.62993 13.3506 1.86758 13.3506 2.43918L13.3506 7.05362C13.3506 7.30924 13.5152 7.53579 13.7583 7.61478L18.1469 9.04072Z" fill="white"/></g></svg>