<svg width="11" height="11" viewBox="0 0 11 11" fill="none" xmlns="http://www.w3.org/2000/svg">
<path d="M4.84042 1.26236C4.95849 0.898986 5.47256 0.898986 5.59063 1.26236L6.54377 4.19583C6.59657 4.35833 6.748 4.46835 6.91887 4.46835L10.0033 4.46836C10.3854 4.46836 10.5442 4.95727 10.2351 5.18184L7.73977 6.99483C7.60154 7.09526 7.54369 7.27328 7.5965 7.43579L8.54964 10.3693C8.6677 10.7326 8.25181 11.0348 7.94271 10.8102L5.44735 8.99723C5.30912 8.8968 5.12193 8.8968 4.9837 8.99723L2.48834 10.8102C2.17924 11.0348 1.76334 10.7326 1.88141 10.3693L2.83455 7.43579C2.88735 7.27328 2.82951 7.09526 2.69128 6.99483L0.195918 5.18184C-0.113184 4.95727 0.0456728 4.46836 0.427743 4.46836L3.51218 4.46835C3.68304 4.46835 3.83448 4.35833 3.88728 4.19583L4.84042 1.26236Z" fill="white"/>
</svg>
