<svg width="14" height="10" viewBox="0 0 14 10" fill="none" xmlns="http://www.w3.org/2000/svg">
<path fill-rule="evenodd" clip-rule="evenodd" d="M7.04838 2.29105C8.97092 2.29113 10.82 3.02958 12.2133 4.35378C12.3182 4.45601 12.4859 4.45472 12.5893 4.35089L13.5922 3.33904C13.6446 3.28637 13.6737 3.21503 13.6733 3.14081C13.6729 3.06659 13.6429 2.99559 13.5899 2.94355C9.93283 -0.559958 4.16335 -0.559958 0.506257 2.94355C0.453282 2.99556 0.423224 3.06653 0.422736 3.14075C0.422247 3.21497 0.451368 3.28633 0.503654 3.33904L1.50691 4.35089C1.61018 4.45488 1.77802 4.45617 1.88288 4.35378C3.2764 3.0295 5.12564 2.29104 7.04838 2.29105ZM7.04829 5.58321C8.1046 5.58315 9.12322 5.97563 9.90622 6.68439C10.0121 6.78498 10.1789 6.7828 10.2822 6.67948L11.284 5.66763C11.3368 5.61455 11.366 5.54255 11.3653 5.46774C11.3645 5.39292 11.3338 5.32153 11.2799 5.26954C8.89556 3.05238 5.20304 3.05238 2.81865 5.26954C2.76479 5.32153 2.73406 5.39295 2.73336 5.4678C2.73265 5.54264 2.76202 5.61463 2.81489 5.66763L3.81641 6.67948C3.91965 6.7828 4.08647 6.78498 4.19238 6.68439C4.97486 5.9761 5.99267 5.58365 7.04829 5.58321ZM9.05544 7.79785C9.05697 7.87288 9.02747 7.94521 8.97389 7.99777L7.24096 9.74597C7.19017 9.79734 7.12091 9.82626 7.04864 9.82626C6.97638 9.82626 6.90712 9.79734 6.85632 9.74597L5.1231 7.99777C5.06956 7.94517 5.04011 7.87281 5.0417 7.79779C5.04328 7.72276 5.07577 7.65171 5.13149 7.60142C6.2382 6.6657 7.85908 6.6657 8.96579 7.60142C9.02147 7.65175 9.05391 7.72282 9.05544 7.79785Z" fill="white"/>
</svg>
