<svg width="19" height="14" xmlns="http://www.w3.org/2000/svg">

 <g>
  <title>background</title>
  <rect fill="none" id="canvas_background" height="16" width="21" y="-1" x="-1"/>
 </g>
 <g>
  <title>Layer 1</title>
  <path transform="rotate(-90 9.236510276794434,7.052937030792235) " stroke-width="0" id="svg_1" fill="white" d="m12.96485,7.053404c-0.0001,2.57837 -0.99045,5.05817 -2.76636,6.92677c-0.1371,0.1407 -0.13537,0.3657 0.00388,0.5042l1.35702,1.3451c0.07063,0.0702 0.1663,0.1093 0.26584,0.1088c0.09954,-0.0006 0.19475,-0.0409 0.26456,-0.1119c4.69866,-4.9046 4.69866,-12.64215 0,-17.546756c-0.06976,-0.071047 -0.16493,-0.111358 -0.26448,-0.112013c-0.09954,-0.000655 -0.19524,0.038399 -0.26592,0.108522l-1.35702,1.345487c-0.13946,0.1385 -0.1412,0.36359 -0.00388,0.50422c1.77603,1.86889 2.76636,4.34895 2.76636,6.92757zm-4.41529,-0.00004c0.00008,1.41661 -0.52628,2.78271 -1.47683,3.83281c-0.1349,0.1421 -0.13198,0.3658 0.0066,0.5042l1.35701,1.3436c0.07118,0.0707 0.16774,0.11 0.26808,0.109c0.10034,-0.001 0.19608,-0.0422 0.26581,-0.1144c2.97348,-3.1978 2.97348,-8.14992 0,-11.34767c-0.06972,-0.07223 -0.16552,-0.11344 -0.26589,-0.11439c-0.10037,-0.00095 -0.19692,0.03844 -0.268,0.10935l-1.35701,1.34316c-0.13858,0.13845 -0.1415,0.36219 -0.0066,0.50422c0.94992,1.0494 1.47624,2.41441 1.47683,3.83012zm-2.96998,2.69131c-0.10062,0.002 -0.19763,-0.0375 -0.26813,-0.1094l-2.344533,-2.32405c-0.068905,-0.06813 -0.107683,-0.16101 -0.107683,-0.25793c0,-0.09692 0.038778,-0.1898 0.107683,-0.25793l2.344533,-2.32445c0.07055,-0.07181 0.16759,-0.11131 0.26821,-0.10918c0.10063,0.00213 0.19591,0.0457 0.26336,0.12043c1.25491,1.48423 1.25491,3.65801 0,5.14231c-0.06751,0.0746 -0.16282,0.1181 -0.26344,0.1202z" clip-rule="evenodd" fill-rule="evenodd"/>
 </g>
</svg>