<svg xmlns="http://www.w3.org/2000/svg" viewBox="0 0 49 48" width="49" height="48"><g transform="matrix(0 -1 1 0 -0 48)"><circle cx="24.1295" cy="24.474" r="23.6019" transform="rotate(90 24.1295 24.474)" fill="white"/><g clip-path="url(#clip0_479_1873)">
<path d="M18.2289 29.1947L19.409 29.1947L19.409 25.6545L22.9493 25.6545L22.9493 29.1947L20.5891 29.1947L20.5891 31.5549L18.2289 31.5549L18.2289 30.3748L15.8687 30.3748L15.8687 28.0147L13.5085 28.0147L13.5085 25.6545L17.0488 25.6545L17.0488 28.0147L18.2289 28.0147L18.2289 29.1947ZM13.5085 35.0952L13.5085 30.3748L15.8687 30.3748L15.8687 32.735L18.2289 32.735L18.2289 35.0952L13.5085 35.0952ZM34.7502 13.8535L34.7502 23.2943L25.3095 23.2943L25.3095 13.8535L34.7502 13.8535ZM32.3901 16.2137L27.6697 16.2137L27.6697 20.9341L32.3901 20.9341L32.3901 16.2137ZM34.7502 25.6545L34.7502 35.0952L25.3095 35.0952L25.3095 25.6545L34.7502 25.6545ZM32.3901 28.0147L27.6697 28.0147L27.6697 32.735L32.3901 32.735L32.3901 28.0147ZM22.9493 13.8535L22.9493 23.2943L13.5085 23.2943L13.5085 13.8535L22.9493 13.8535ZM20.5891 16.2137L15.8687 16.2137L15.8687 20.9341L20.5891 20.9341L20.5891 16.2137ZM22.9493 31.5549L22.9493 35.0952L20.5891 35.0952L20.5891 31.5549L22.9493 31.5549ZM31.21 17.3938L31.21 19.754L28.8498 19.754L28.8498 17.3938L31.21 17.3938ZM19.409 17.3938L19.409 19.754L17.0488 19.754L17.0488 17.3938L19.409 17.3938ZM31.21 29.1947L31.21 31.5549L28.8498 31.5549L28.8498 29.1947L31.21 29.1947Z" fill="#010914"/>
</g><defs>
<clipPath id="clip0_479_1873">
<rect width="28.3223" height="28.3223" fill="white" transform="translate(38.2908 10.313) rotate(90)"/>
</clipPath>
</defs></g></svg>