<svg width="30" height="29" viewBox="0 0 30 29" fill="none" xmlns="http://www.w3.org/2000/svg">
<path opacity="0.3" d="M9.44688 17.2133C9.90773 16.7525 10.6549 16.7525 11.1158 17.2133C11.5766 17.6742 11.5766 18.4214 11.1158 18.8822L6.3954 23.6026C5.93455 24.0635 5.18735 24.0635 4.7265 23.6026C4.26564 23.1417 4.26564 22.3946 4.7265 21.9337L9.44688 17.2133Z" fill="#B7B7B7"/>
<path fill-rule="evenodd" clip-rule="evenodd" d="M16.1817 5.06641C11.6195 5.06641 7.92105 8.76483 7.92105 13.3271C7.92105 17.8893 11.6195 21.5877 16.1817 21.5877C20.744 21.5877 24.4424 17.8893 24.4424 13.3271C24.4424 8.76483 20.744 5.06641 16.1817 5.06641ZM16.1818 19.2275C12.923 19.2275 10.2813 16.5858 10.2813 13.327C10.2813 10.0683 12.923 7.42654 16.1818 7.42654C19.4405 7.42654 22.0823 10.0683 22.0823 13.327C22.0823 16.5858 19.4405 19.2275 16.1818 19.2275Z" fill="#B7B7B7"/>
</svg>
